<?xml version="1.0" encoding="windows-1252"?>
<!-- Generator: Adobe Illustrator 15.0.2, SVG Export Plug-In . SVG Version: 6.00 Build 0)  -->
<!DOCTYPE svg PUBLIC "-//W3C//DTD SVG 1.1//EN" "http://www.w3.org/Graphics/SVG/1.1/DTD/svg11.dtd">
<svg version="1.1" id="Layer_1" xmlns="http://www.w3.org/2000/svg" xmlns:xlink="http://www.w3.org/1999/xlink" x="0px" y="0px" width="170px" height="170px" viewBox="0 0 170 170" style="enable-background:new 0 0 170 170;" xml:space="preserve">
<style type="text/css">
<![CDATA[
	.st0{fill:#FFFFFF;}
	.st1{fill:#3D7399;}
]]>
</style>
<g>
	<path class="st1" d="M130.6,71.17c0-13.88-25.61-24.75-58.3-24.75C39.61,46.42,14,57.3,14,71.18c0,0.09,0.01,0.17,0.01,0.26v4.46   h-0.02c0,0.08,0.01,0.17,0.01,0.26v26.97h-0.01c0,13.88,25.61,24.76,58.3,24.76c32.69,0,58.3-10.88,58.3-24.76h0.01V71.18V71.17z"/>
	<path class="st0" d="M125.6,103.12c0,4.45-5.18,9.3-13.84,12.98c-10.29,4.37-24.3,6.78-39.46,6.78c-15.16,0-29.17-2.41-39.46-6.78   c-8.5-3.61-13.65-8.35-13.84-12.73c0-0.08,0.01-0.17,0.01-0.25V80.9c8.75,8.7,29.05,14.66,53.28,14.66   c24.26,0,44.59-5.98,53.32-14.7v21.88C125.61,102.87,125.6,103,125.6,103.12z"/>
	<path class="st0" d="M72.31,51.42c31.41,0,53.3,10.41,53.3,19.75c0,0.13,0,0.26,0.01,0.38v2.46c-3.64,8.92-24.15,17.54-53.32,17.54   c-29.08,0-49.54-8.56-53.28-17.45v-2.67c0-0.06,0-0.11,0-0.17c0-0.06-0.01-0.13-0.01-0.19C19.17,61.75,41.02,51.42,72.31,51.42z"/>
	<path class="st1" d="M80.39,55.68c-1.58-1.49-4.5-3.56-7.86-3.56c-3.32,0-6.21,2.04-7.8,3.5c-16.62,1.43-28.39,7.52-28.39,15.27   c0,8.88,15.46,15.58,35.96,15.58s35.96-6.7,35.96-15.58C108.26,63.23,96.73,57.19,80.39,55.68z"/>
	<path class="st0" d="M72.3,82.48c-18.83,0-31.96-6.1-31.96-11.58S53.46,59.31,72.3,59.31c18.83,0,31.96,6.11,31.96,11.59   S91.13,82.48,72.3,82.48z"/>
	<g>
		<g>
			<g>
				<path class="st1" d="M93.11,99.4l-0.35-0.47c-2.5-3.16-3.82-6.96-3.82-10.99c0-9.81,7.98-17.79,17.79-17.79      c4.83,0,9.34,1.9,12.7,5.35l1.79,1.84l1.79-1.84c3.36-3.45,7.87-5.35,12.7-5.35c9.81,0,17.79,7.98,17.79,17.79      c0,4.03-1.32,7.83-3.81,10.98l-0.51,0.65l-27.95,30.33L93.11,99.4z"/>
				<path class="st0" d="M135.71,72.65c8.43,0,15.29,6.86,15.29,15.29c0,3.46-1.13,6.72-3.27,9.43l-0.45,0.57l-26.05,28.26      L95.18,97.95l-0.46-0.58c-2.15-2.72-3.28-5.98-3.28-9.44c0-8.43,6.86-15.29,15.29-15.29c4.15,0,8.02,1.63,10.91,4.6l3.58,3.68      l3.58-3.68C127.69,74.28,131.56,72.65,135.71,72.65 M135.71,67.65c-5.52,0-10.68,2.2-14.49,6.11      c-3.81-3.91-8.97-6.11-14.49-6.11c-11.19,0-20.29,9.1-20.29,20.29c0,4.58,1.54,8.97,4.36,12.54l-0.05,0.05l30.47,33.06      l30.47-33.06l-0.05-0.05c2.82-3.57,4.35-7.95,4.35-12.53C155.99,76.75,146.89,67.65,135.71,67.65L135.71,67.65z"/>
			</g>
		</g>
	</g>
</g>
</svg>